<svg id="Layer_1" data-name="Layer 1" xmlns="http://www.w3.org/2000/svg" xmlns:xlink="http://www.w3.org/1999/xlink" viewBox="0 0 40 40"><defs><style>.cls-1{fill:url(#linear-gradient);}.cls-2{fill:url(#linear-gradient-2);}.cls-3{fill:none;clip-rule:evenodd;}.cls-4{clip-path:url(#clip-path);}.cls-5{fill:url(#linear-gradient-3);}.cls-6{clip-path:url(#clip-path-2);}.cls-7{fill:url(#linear-gradient-4);}.cls-8{mask:url(#mask);}.cls-9{fill:#5e17a9;}.cls-13,.cls-14,.cls-9{fill-rule:evenodd;}.cls-10{clip-path:url(#clip-path-3);}.cls-11{fill:url(#linear-gradient-5);}.cls-12{mask:url(#mask-2);}.cls-13{fill:#e60040;}.cls-14{fill:#fff;}.cls-15{fill:#4a1877;}</style><linearGradient id="linear-gradient" x1="-1273.44" y1="1248.49" x2="-1220.66" y2="1248.49" gradientTransform="translate(1256.39 -1222.41)" gradientUnits="userSpaceOnUse"><stop offset="0" stop-color="#fff"/><stop offset="1"/></linearGradient><linearGradient id="linear-gradient-2" x1="-1248.25" y1="1323.56" x2="-1227.54" y2="1280.21" gradientTransform="translate(1243.6 -1273.74)" xlink:href="#linear-gradient"/><clipPath id="clip-path"><path class="cls-3" d="M36.85,3.54q.16-.24.36-.48a5.19,5.19,0,0,1,2.1-1.45c.64-.26.78-.15.64.49a5,5,0,0,1-1.06,2.32,4.37,4.37,0,0,1-.42.44,1.72,1.72,0,0,1-.3,1.61,1.48,1.48,0,0,0-.39-1.07l-.57.39-.08-.06-.07-.06-.74-.6L36.25,5l-.06,0,.32-.64a1,1,0,0,0-1.08-.12,1.58,1.58,0,0,1,1.42-.67"/></clipPath><linearGradient id="linear-gradient-3" x1="34.67" y1="5.73" x2="1.01" y2="25.61" gradientUnits="userSpaceOnUse"><stop offset="0" stop-color="#fb4faf"/><stop offset="0.42" stop-color="#c835f8"/><stop offset="1" stop-color="#1a85f8"/></linearGradient><clipPath id="clip-path-2"><path class="cls-3" d="M9.77,26.13a1.37,1.37,0,0,0,.15.21,12.18,12.18,0,0,0,20.54-13,25.15,25.15,0,0,0,5.61-7.06c-6,5.67-24.32,18.52-32.82,16.68-1.6-.34-1.54-1.42-.28-3.25-4.9,2.59-3,5.53.43,5.82,4.95.42,11.75-2.81,16.07-4.93a3.6,3.6,0,0,1-.34.3,25.86,25.86,0,0,1-9.36,5.27"/></clipPath><linearGradient id="linear-gradient-4" x1="36.72" y1="7.19" x2="3" y2="27.18" xlink:href="#linear-gradient-3"/><mask id="mask" x="9.77" y="20.72" width="21.55" height="10.73" maskUnits="userSpaceOnUse"><rect class="cls-1" x="9.77" y="20.72" width="21.55" height="10.73"/></mask><clipPath id="clip-path-3"><path class="cls-3" d="M28.47,10.81A12.19,12.19,0,0,0,7.2,18.94a12.44,12.44,0,0,0,.2,2.21c6.54-1.86,15.53-6.51,21.07-10.34"/></clipPath><linearGradient id="linear-gradient-5" x1="6.68" y1="20.32" x2="31.24" y2="6.29" gradientUnits="userSpaceOnUse"><stop offset="0" stop-color="#fb4faf"/><stop offset="1" stop-color="#f9d92e"/></linearGradient><mask id="mask-2" x="7.2" y="7.65" width="10.15" height="13.5" maskUnits="userSpaceOnUse"><rect class="cls-2" x="7.2" y="7.65" width="10.15" height="13.5"/></mask></defs><g class="cls-4"><rect class="cls-5" x="35.43" y="1.35" width="4.65" height="5.12"/></g><g class="cls-6"><rect class="cls-7" x="-1.93" y="6.24" width="37.99" height="25.21"/></g><g class="cls-8"><path class="cls-9" d="M9.77,26.13a1.37,1.37,0,0,0,.15.21,12.19,12.19,0,0,0,21.4-3C27.14,31.05,13.17,30.26,16,24.86a20.2,20.2,0,0,1,3.29-4.14h0l-.17.14a25.86,25.86,0,0,1-9.36,5.27"/></g><g class="cls-10"><rect class="cls-11" x="7.2" y="6.75" width="21.27" height="14.4"/></g><g class="cls-12"><path class="cls-13" d="M14.8,7.65A12.18,12.18,0,0,0,7.2,18.94a12.44,12.44,0,0,0,.2,2.21,64.54,64.54,0,0,0,10-4c-10,3.14-9.3-6.75-2.55-9.54"/></g><polygon class="cls-14" points="12.1 12.82 12.42 13.47 13.08 13.8 12.43 14.12 12.1 14.78 11.79 14.13 11.12 13.8 11.77 13.48 12.1 12.82"/><polygon class="cls-14" points="27.97 20.69 28.29 21.34 28.95 21.67 28.3 21.99 27.97 22.65 27.66 22 26.99 21.67 27.64 21.35 27.97 20.69"/><polygon class="cls-14" points="19.62 25.64 19.84 26.1 20.3 26.33 19.85 26.55 19.62 27.01 19.4 26.56 18.93 26.33 19.39 26.11 19.62 25.64"/><polygon class="cls-14" points="25.11 25.64 25.27 25.98 25.61 26.14 25.28 26.31 25.11 26.65 24.95 26.32 24.61 26.14 24.94 25.98 25.11 25.64"/><polygon class="cls-14" points="22.61 19.77 22.77 20.1 23.11 20.27 22.77 20.44 22.61 20.78 22.44 20.44 22.1 20.27 22.43 20.11 22.61 19.77"/><polygon class="cls-14" points="17.45 9.1 17.61 9.43 17.95 9.6 17.62 9.77 17.45 10.11 17.29 9.77 16.94 9.6 17.28 9.44 17.45 9.1"/><polygon class="cls-14" points="18.41 12.59 18.63 13.05 19.09 13.28 18.64 13.5 18.41 13.96 18.19 13.51 17.72 13.28 18.18 13.06 18.41 12.59"/><path class="cls-15" d="M11.59,37.4a1.16,1.16,0,0,1-.27.78,1,1,0,0,1-.75.34H7.43v-.85h3.14c.12,0,.17-.09.17-.27s-.05-.27-.17-.27H8.29a1,1,0,0,1-.75-.34A1.12,1.12,0,0,1,7.26,36a1.14,1.14,0,0,1,.29-.79.94.94,0,0,1,.74-.33h3.13v.85H8.28q-.18,0-.18.27t.18.27h2.29a1,1,0,0,1,.75.34,1.17,1.17,0,0,1,.27.78"/><path class="cls-15" d="M16.36,36.12c0-.25-.06-.38-.18-.38H13.51v.75h2.67c.12,0,.18-.12.18-.37m.85,0a1.31,1.31,0,0,1-.27.83.9.9,0,0,1-.76.39H13.51v1.18h-.85V34.89h3.52a.9.9,0,0,1,.76.39A1.32,1.32,0,0,1,17.21,36.12Z"/><path class="cls-15" d="M19.65,36.52h2.23V36q0-.27-.18-.27H19.3q-.18,0-.18.27v.51Zm3.08,2h-.85V37.37H19.12v1.15h-.84V36a1.18,1.18,0,0,1,.28-.79.94.94,0,0,1,.74-.33h2.4a.94.94,0,0,1,.75.33,1.18,1.18,0,0,1,.28.79Z"/><path class="cls-15" d="M27.8,38.52H25a1.17,1.17,0,0,1-.84-.33,1.09,1.09,0,0,1-.35-.82V36a1.09,1.09,0,0,1,.35-.82,1.17,1.17,0,0,1,.84-.33H27.8v.85H25c-.23,0-.34.1-.34.3v1.33c0,.2.11.3.34.3H27.8Z"/><polygon class="cls-15" points="32.74 35.74 29.71 35.74 29.71 36.28 32.55 36.28 32.55 37.13 29.71 37.13 29.71 37.67 32.74 37.67 32.74 38.52 28.87 38.52 28.87 34.89 32.74 34.89 32.74 35.74"/></svg>